<svg width="130" height="32" viewBox="0 0 130 32" fill="none" xmlns="http://www.w3.org/2000/svg">
<path d="M8.93562 26.2295C8.79248 26.6238 8.59509 26.8855 8.32621 26.9979C8.05723 27.1105 7.73129 27.0676 7.34553 26.8875C6.62896 26.5528 6.10246 25.9848 5.63322 25.3825C3.9732 23.2519 2.96661 20.7965 2.12435 18.2696C1.60182 16.7019 1.15764 15.1002 1.01417 13.4508C0.786758 10.8361 1.08841 8.3226 3.1595 6.37736C4.13141 5.4645 5.30499 5.03417 6.63843 4.95346C8.17482 4.86045 9.53795 5.2832 10.8224 6.08757C11.0475 6.22856 11.2703 6.37328 11.4928 6.51783C12.6509 7.27003 13.8014 8.01727 15.2293 8.20665L15.2406 8.30299C14.1995 8.70195 13.1426 8.74452 12.1177 8.4089C11.5184 8.21267 10.932 7.97786 10.3473 7.74375L10.3351 7.73885C9.74588 7.50291 9.15837 7.26797 8.55824 7.0726C6.84086 6.51351 5.01698 7.13622 4.15205 8.53076C3.47584 9.62106 3.2767 10.8501 3.34801 12.1141C3.5127 15.0331 4.15948 17.8464 5.31807 20.5344C5.65927 21.326 6.05293 22.0878 6.6776 22.6906C6.82904 22.8368 6.95739 22.9409 7.07032 23.0047C7.18288 23.0683 7.27623 23.0897 7.35982 23.0769C7.44343 23.064 7.52597 23.0156 7.61415 22.9217C7.70262 22.8274 7.79367 22.6907 7.89418 22.5079C7.91749 22.4655 7.94077 22.4231 7.96406 22.3807C8.41318 21.5623 8.86586 20.7375 9.54391 20.0625C10.6727 18.9386 12.044 18.5658 13.5992 18.6849C14.2841 18.7374 14.9556 18.8563 15.6225 18.9896C15.815 19.028 16.007 19.0677 16.1988 19.1073C16.6722 19.205 17.1446 19.3026 17.6209 19.3817C19.3176 19.6635 20.9667 19.4921 22.6014 19.0086C22.6672 18.9892 22.7343 18.9722 22.8053 18.9543C22.8393 18.9458 22.8741 18.937 22.91 18.9276L22.9994 18.9043L22.9701 18.9919C22.8765 19.2719 22.6438 19.566 22.3386 19.8284C22.0325 20.0915 21.6489 20.3266 21.247 20.4871C20.089 20.9493 18.8892 20.8727 17.7053 20.7513C17.0858 20.6877 16.4654 20.6039 15.8459 20.5203C15.354 20.4539 14.8627 20.3876 14.3728 20.3315C13.3837 20.2183 12.5542 20.3506 11.8635 20.73C11.1727 21.1094 10.6157 21.7387 10.1764 22.6282C9.79417 23.4021 9.54954 24.2225 9.30341 25.048C9.2547 25.2113 9.20594 25.3749 9.15603 25.5383C9.14324 25.5802 9.13054 25.6222 9.11781 25.6643C9.06079 25.8529 9.00327 26.0432 8.93562 26.2295ZM8.93562 26.2295L8.88858 26.2124L8.93562 26.2295C8.93562 26.2295 8.93562 26.2295 8.93562 26.2295Z" fill="white" stroke="white" stroke-width="0.10009"/>
<path d="M10.6102 18.6355C10.5732 18.6525 10.5349 18.6685 10.4975 18.6841C10.48 18.6914 10.4627 18.6986 10.4458 18.7058C10.392 18.7288 10.3408 18.7523 10.2931 18.7805C10.2762 18.7904 10.2606 18.8043 10.24 18.8225C10.2379 18.8244 10.2357 18.8263 10.2334 18.8283C10.2112 18.848 10.1837 18.8716 10.1498 18.8883C10.1145 18.9057 10.0734 18.9151 10.0241 18.9094C9.97582 18.9039 9.92239 18.8841 9.86101 18.8476L9.81077 18.8177L9.84805 18.7727C10.256 18.2798 10.7446 17.9096 11.2778 17.6202C12.2851 17.0733 13.3736 16.9516 14.5041 17.0308C15.7664 17.1194 17.0028 17.3502 18.2375 17.5825C18.3986 17.6128 18.5146 17.6097 18.604 17.563C18.6921 17.5169 18.7655 17.4222 18.8263 17.2415C19.5142 15.1957 20.0506 13.1269 20.1123 10.9599C20.1334 10.2191 20.0723 9.48503 19.897 8.76754C19.71 8.00258 19.3367 7.46222 18.8216 7.16147C18.3062 6.86061 17.6409 6.79492 16.861 6.99528C16.7111 7.03378 16.5612 7.07483 16.411 7.11596C15.7162 7.30625 15.014 7.49858 14.2646 7.45161C13.197 7.38467 12.3547 6.89237 11.6232 6.14676L11.5105 6.03195L11.6684 6.06258C13.1788 6.35561 14.5563 5.91025 15.9441 5.46153C16.1872 5.38293 16.4306 5.30422 16.6751 5.22936C17.5344 4.96629 18.4099 4.84098 19.2912 5.03299C20.8525 5.37319 21.5414 6.5569 21.8917 7.95128C22.4461 10.1579 22.3527 12.3727 21.8515 14.5758C21.6333 15.5349 21.3686 16.4811 21.0652 17.4167C21.0185 17.5607 20.9854 17.6647 20.9705 17.7417C20.9551 17.821 20.9629 17.8548 20.9766 17.8724C20.9913 17.8911 21.0256 17.9083 21.111 17.9178C21.1935 17.9269 21.3083 17.9275 21.4662 17.9279C21.9505 17.929 22.4349 17.9288 22.9598 17.9285C23.2 17.9284 23.4487 17.9283 23.7098 17.9283L23.7295 18.0243C22.7762 18.4339 21.8967 18.6821 20.9865 18.8388C19.0425 19.1734 17.1595 18.791 15.2874 18.3832C13.699 18.0371 12.1316 17.9363 10.6102 18.6355ZM10.6102 18.6355L10.5893 18.59M10.6102 18.6355C10.6102 18.6355 10.6102 18.6355 10.6102 18.6355L10.5893 18.59M10.5893 18.59C12.1252 17.8841 13.7055 17.9873 15.2981 18.3343C17.171 18.7423 19.0449 19.1222 20.978 18.7895C21.8468 18.6399 22.6873 18.4067 23.5917 18.0284L9.9315 18.8288C10.0781 18.8993 10.1447 18.8402 10.2072 18.7847C10.227 18.7671 10.2463 18.75 10.2676 18.7374C10.3346 18.6979 10.4069 18.6677 10.4793 18.6374C10.5162 18.6221 10.5531 18.6067 10.5893 18.59Z" fill="white" stroke="white" stroke-width="0.10009"/>
<path d="M11.6768 22.0422C12.3027 21.893 12.6975 22.1225 13.0303 22.5185C13.3995 22.9577 13.6257 23.4853 13.9317 23.9636C14.4466 24.7685 14.8859 24.8022 15.4872 24.0847C16.0899 23.3655 16.5314 22.5464 16.9553 21.7185C17.106 21.4242 17.2544 21.2853 17.625 21.3558C18.0955 21.4453 18.5851 21.4414 19.0671 21.46C19.284 21.4684 19.3608 21.5431 19.2588 21.7394C18.4236 23.3454 17.592 24.9545 16.2323 26.2053C16.1689 26.2636 16.1047 26.3221 16.0346 26.3717C15.0087 27.0975 14.2867 27.1233 13.5702 25.9962C13.1607 25.352 12.8916 24.645 12.6132 23.9401C12.361 23.302 12.1081 22.6626 11.6768 22.0422Z" fill="white"/>
<path d="M29.4848 7.83148C29.8647 7.76542 30.2694 7.70761 30.6988 7.65806C31.1447 7.592 31.5824 7.54245 32.0118 7.50942C32.4577 7.47639 32.8872 7.45161 33.3001 7.4351C33.713 7.41858 34.0928 7.41032 34.4397 7.41032C35.249 7.41032 36.0417 7.48464 36.818 7.63329C37.6108 7.78194 38.3127 8.03794 38.9238 8.40129C39.5514 8.76465 40.0469 9.26839 40.4103 9.91252C40.7901 10.5401 40.9801 11.3329 40.9801 12.2908C40.9801 13.7112 40.6497 14.8674 39.9891 15.7592C39.3285 16.6511 38.4448 17.2705 37.3383 17.6173L38.5522 18.3853L42.5161 25H38.6017L34.6627 18.2119L32.8789 17.8898V25H29.4848V7.83148ZM34.6874 10.4328C34.3406 10.4328 33.9937 10.441 33.6469 10.4575C33.3166 10.4741 33.0606 10.5071 32.8789 10.5566V15.5858H34.3158C35.2572 15.5858 36.0087 15.3711 36.5703 14.9417C37.1318 14.5123 37.4126 13.8021 37.4126 12.8111C37.4126 12.0679 37.1814 11.4898 36.7189 11.0769C36.2565 10.6475 35.5793 10.4328 34.6874 10.4328ZM43.5953 12.6129H46.8159V25H43.5953V12.6129ZM43.1246 9.11974C43.1246 8.64077 43.298 8.23613 43.6448 7.90581C44.0082 7.55897 44.5037 7.38555 45.1313 7.38555C45.7589 7.38555 46.2627 7.55897 46.6425 7.90581C47.0389 8.23613 47.2371 8.64077 47.2371 9.11974C47.2371 9.59871 47.0389 10.0034 46.6425 10.3337C46.2627 10.6475 45.7589 10.8044 45.1313 10.8044C44.5037 10.8044 44.0082 10.6475 43.6448 10.3337C43.298 10.0034 43.1246 9.59871 43.1246 9.11974ZM55.5007 17.8403L55.9466 20.7884H56.0705L56.5659 17.8155L59.8857 7.65806H63.4532L57.0119 25.1239H54.584L48.0932 7.65806H52.0323L55.5007 17.8403ZM70.3207 21.16H64.9942L63.6812 25H60.2871L66.5302 7.53419H69.0324L75.2755 25H71.708L70.3207 21.16ZM65.8613 18.4348H69.5774L68.2892 14.5701L67.7689 11.8449H67.645L67.1248 14.5948L65.8613 18.4348ZM75.5348 7.65806C75.8817 7.60852 76.2698 7.56723 76.6992 7.53419C77.1452 7.50116 77.5994 7.47639 78.0618 7.45987C78.5243 7.44335 78.9702 7.4351 79.3996 7.4351C79.8456 7.41858 80.2419 7.41032 80.5888 7.41032C82.1248 7.41032 83.4378 7.62503 84.5279 8.05445C85.6179 8.48387 86.5016 9.08671 87.1787 9.86297C87.8559 10.6392 88.3514 11.5641 88.6652 12.6377C88.979 13.7112 89.1359 14.8921 89.1359 16.1804C89.1359 17.353 88.9872 18.4844 88.6899 19.5745C88.3927 20.6645 87.8972 21.6307 87.2035 22.473C86.5098 23.3154 85.5932 23.9925 84.4536 24.5045C83.3305 25.0165 81.9348 25.2725 80.2667 25.2725C80.0025 25.2725 79.6474 25.2643 79.2014 25.2477C78.772 25.2312 78.3178 25.2065 77.8388 25.1734C77.3764 25.1569 76.9305 25.1321 76.501 25.0991C76.0716 25.0826 75.7496 25.0578 75.5348 25.0248V7.65806ZM80.8613 10.4328C80.4979 10.4328 80.1263 10.441 79.7465 10.4575C79.3831 10.4741 79.1106 10.4988 78.9289 10.5319V22.151C78.995 22.1675 79.1023 22.184 79.251 22.2005C79.4161 22.2005 79.5896 22.2088 79.7712 22.2253C79.9529 22.2253 80.1263 22.2335 80.2915 22.2501C80.4567 22.2501 80.5805 22.2501 80.6631 22.2501C81.621 22.2501 82.4138 22.0849 83.0414 21.7546C83.6856 21.4077 84.1893 20.9535 84.5527 20.392C84.9325 19.8305 85.1968 19.1863 85.3454 18.4596C85.4941 17.7164 85.5684 16.9566 85.5684 16.1804C85.5684 15.5032 85.5023 14.8261 85.3702 14.1489C85.2381 13.4552 84.9903 12.8359 84.627 12.2908C84.2801 11.7458 83.8012 11.2999 83.1901 10.953C82.579 10.6062 81.8027 10.4328 80.8613 10.4328ZM90.3365 7.65806H100.618V10.6805H93.7305V14.7187H99.9984V17.7412H93.7305V21.9775H100.742V25H90.3365V7.65806ZM106.352 15.9574L104.989 13.2323H104.866L105.262 15.9574V25H102.041V7.53419H104.519L111.084 16.775L112.397 19.4258H112.521L112.124 16.775V7.65806H115.345V25.1239H112.868L106.352 15.9574ZM129.398 10.6805H124.344V25H120.95V10.6805H115.871V7.65806H129.398V10.6805Z" fill="white"/>
</svg>
