<svg width="127" height="38" viewBox="0 0 127 38" fill="none" xmlns="http://www.w3.org/2000/svg">
<path d="M49.1361 19.5329H47.5377V16.3355H49.1361C50.1387 16.3355 50.6058 17.3146 50.6058 17.9761C50.6058 18.6225 50.1498 19.5329 49.1361 19.5329ZM50.8803 20.4067C51.8657 19.9438 52.4538 19.0349 52.4538 17.9761C52.4538 16.3482 51.0828 15.1206 49.2649 15.1206H45.6897V23.6533H47.5377V20.7477H48.5615L50.3761 23.6533H52.5315L50.599 20.5389L50.8803 20.4067Z" fill="white"/>
<path d="M57.9757 20.0064H61.8236V18.7677H57.9757V16.5747H62.8017V15.1206H56.1274V23.6533H62.8017V22.1992H57.9757V20.0064Z" fill="white"/>
<path d="M69.4993 21.2787L71.1446 17.8727L72.7899 21.2787H69.4993ZM70.4752 15.1206L66.3427 23.6533H68.3505L68.8909 22.5174H73.3835L73.9369 23.6533H75.9214L71.8007 15.1206H70.4752Z" fill="white"/>
<path d="M81.3098 15.1206H79.4618V23.6533H86.136V22.1992H81.3098V15.1206Z" fill="white"/>
<path d="M94.9576 23.6533H96.8058V16.5747H99.4182V15.1206H92.3451V16.5747H94.9576V23.6533Z" fill="white"/>
<path d="M102.796 23.6533H104.644V15.1206H102.796V23.6533Z" fill="white"/>
<path d="M109.428 15.1206H108.021V23.6533H109.869V18.2441L112.485 21.9429L115.1 18.2441V23.6533H116.948V15.1206H115.542L112.485 19.4502L109.428 15.1206Z" fill="white"/>
<path d="M127 16.5747V15.1206H120.326V23.6533H127V22.1992H122.174V20.0064H126.022V18.7675H122.174V16.5747H127Z" fill="white"/>
<path d="M70.4827 28.8261L68.4998 31.6293L66.5169 28.852L66.4983 28.8261H66.1792V33.3108H66.614V29.6428L68.5 32.3185L70.3858 29.6485V33.3108H70.8144V28.8261H70.4827Z" fill="white"/>
<path d="M75.5955 32.177H72.913L74.2513 29.4113L75.5955 32.177ZM74.4279 28.8261H74.0748L71.9088 33.3108H72.3679L72.7268 32.5695H75.7824L76.1472 33.3108H76.5999L74.4279 28.8261Z" fill="white"/>
<path d="M78.1293 29.2242H79.483C80.1458 29.2242 80.6268 29.6348 80.6268 30.2004C80.6268 30.7628 80.1458 31.1712 79.483 31.1712H78.1293V29.2242ZM81.0552 30.2004C81.0552 29.4039 80.3942 28.8261 79.483 28.8261H77.6945V33.3108H78.1293V31.5692H79.2777L80.6201 33.3108H81.1208L79.7693 31.552C80.5318 31.4492 81.0552 30.9061 81.0552 30.2004Z" fill="white"/>
<path d="M85.3742 28.8261L82.6252 31.6416V28.8261H82.1906V33.3108H82.6252V32.2235L83.6044 31.2382L85.3779 33.3108H85.9022L83.8939 30.9329L85.9325 28.8261H85.3742Z" fill="white"/>
<path d="M86.9834 33.3108H90.2885V32.9127H87.4182V31.2647H89.7132V30.8722H87.4182V29.2242H90.2885V28.8261H86.9834V33.3108Z" fill="white"/>
<path d="M90.9229 29.2242H92.4756V33.3108H92.9104V29.2242H94.4631V28.8261H90.9229V29.2242Z" fill="white"/>
<path d="M95.592 33.3108H96.0269V28.8261H95.592V33.3108Z" fill="white"/>
<path d="M100.621 32.5764L97.5101 28.8487L97.4913 28.8261H97.1565V33.3108H97.5913V29.5551L100.696 33.2882L100.715 33.3108H101.056V28.8261H100.621V32.5764Z" fill="white"/>
<path d="M104.981 31.3211H106.057V32.4506C105.68 32.7814 105.185 32.9631 104.66 32.9631C103.535 32.9631 102.62 32.1127 102.62 31.0673C102.62 30.0219 103.535 29.1714 104.66 29.1714C105.225 29.1714 105.772 29.3952 106.161 29.7851L106.205 29.8294L106.51 29.5458L106.469 29.5046C105.998 29.0294 105.355 28.7676 104.66 28.7676C103.295 28.7676 102.185 29.7992 102.185 31.0673C102.185 32.3353 103.295 33.3669 104.66 33.3669C105.352 33.3669 105.997 33.1051 106.475 32.6301L106.492 32.6133V30.9228H104.981V31.3211Z" fill="white"/>
<path d="M9.24255 22.0994V38H14.9999V31.8086L19.7718 38H26.6887C22.79 32.7038 18.8937 27.3995 14.9999 22.0994H9.24255Z" fill="url(#paint0_linear_269_138)"/>
<path d="M21.6262 0.857754V6.16212H26.8072C27.1088 6.16212 27.4014 6.17217 27.6896 6.19679C31.7619 6.5218 34.5317 9.08924 34.5317 12.6682C34.5317 16.2103 31.7752 18.7615 27.7181 19.0886C27.4871 19.107 27.2495 19.1192 27.0119 19.1233H26.9593C26.9151 19.1233 26.8513 19.1274 26.8072 19.1274H18.6542L18.6915 19.1417H18.6542C19.9037 20.9057 21.151 22.6698 22.3963 24.4315H24.5985L35.0553 38H41.8667L31.051 23.9268C36.5778 22.4899 40.2409 18.1482 40.2409 12.6682C40.2409 5.82275 34.5909 0.857754 26.8072 0.857754H21.6262Z" fill="url(#paint1_linear_269_138)"/>
<path d="M0 0.831558V6.1427H9.24194V19.1003H14.9992V6.1427V6.13571H18.4839V0.831766V0.831558H0Z" fill="url(#paint2_linear_269_138)"/>
<defs>
<linearGradient id="paint0_linear_269_138" x1="9.24245" y1="30.0497" x2="26.6887" y2="30.0497" gradientUnits="userSpaceOnUse">
<stop stop-color="#71C82E"/>
<stop offset="0.00072815" stop-color="#71C82E"/>
<stop offset="0.42905" stop-color="#46BA3A"/>
<stop offset="0.432994" stop-color="#46BA3A"/>
<stop offset="0.983799" stop-color="#429938"/>
<stop offset="1" stop-color="#429938"/>
</linearGradient>
<linearGradient id="paint1_linear_269_138" x1="18.654" y1="19.4289" x2="41.8665" y2="19.4289" gradientUnits="userSpaceOnUse">
<stop stop-color="#71C82E"/>
<stop offset="0.0318436" stop-color="#71C82E"/>
<stop offset="0.0328211" stop-color="#71C82E"/>
<stop offset="0.607821" stop-color="#46BA3A"/>
<stop offset="0.610494" stop-color="#46BA3A"/>
<stop offset="0.983799" stop-color="#429938"/>
<stop offset="1" stop-color="#429938"/>
</linearGradient>
<linearGradient id="paint2_linear_269_138" x1="-2.53067" y1="14.9833" x2="21.3034" y2="3.21594" gradientUnits="userSpaceOnUse">
<stop stop-color="#71C82E"/>
<stop offset="0.48771" stop-color="#71C82E"/>
<stop offset="0.488606" stop-color="#71C82E"/>
<stop offset="0.983799" stop-color="#429938"/>
<stop offset="1" stop-color="#429938"/>
</linearGradient>
</defs>
</svg>
