<svg width="345" height="96" viewBox="0 0 345 96" fill="none" xmlns="http://www.w3.org/2000/svg">
<path opacity="0.04" fill-rule="evenodd" clip-rule="evenodd" d="M308.501 0.447044C292.403 1.7044 272.735 6.43446 257.351 12.6614C254.041 13.9786 251.12 15.1761 250.73 15.2958C250.405 15.4156 249.432 14.2181 248.588 12.6614C246.835 9.1288 243.785 7.03316 237.358 5.05732C229.894 2.72223 222.429 1.76424 212.108 1.76424C192.959 1.70437 171.214 6.5542 147.976 16.0143L140.057 19.2475L137.785 17.6309C133.695 14.7569 128.438 13.6792 118.636 13.6792C108.315 13.6792 100.461 14.9366 88.4523 18.6488C81.1823 20.8641 63.7212 28.3483 54.6336 33.1383L50.7389 35.2339L49.5706 32.2402C46.3899 24.0374 33.7971 18.6487 21.5939 20.3252C0.562668 23.1992 -37.2805 47.1488 -59.4152 71.5775C-66.8799 79.7802 -69.6062 84.0313 -71.229 89.839C-72.2676 93.4914 -72.2676 93.7308 -71.1641 94.4493C-69.6062 95.4672 -67.3992 95.4073 -65.0624 94.3296C-62.3362 93.0124 -62.6607 92.6531 -65.4519 93.7309C-68.3729 94.8685 -70.515 94.0302 -69.9308 92.0544C-67.3992 83.8516 -56.7538 72.715 -34.5542 55.1719C-13.1985 38.2276 2.38018 28.8273 15.7519 24.7559C23.1517 22.4807 31.1358 22.4807 36.1989 24.6362C40.9374 26.6719 43.9233 29.0669 45.3513 32.0606C47.3636 36.0721 47.039 37.3894 43.5338 39.3053C41.7812 40.2034 35.8743 43.6761 30.3569 47.0291C14.5186 56.6089 4.97663 63.9734 -3.33199 72.7749C-9.75818 79.6006 -12.4195 83.3127 -13.523 86.7255C-14.8213 90.6772 -14.6265 92.1142 -12.5494 94.0901C-8.91435 97.443 -4.88986 96.4252 7.1836 89.0008C20.8149 80.6184 32.3691 71.0386 39.6391 61.9976C44.3777 56.1299 46.9741 51.5196 49.1811 44.9335L50.9337 39.8442L56.3862 36.6708C65.6685 31.3421 84.0383 23.1992 92.6715 20.5647C104.161 17.092 111.69 15.9544 121.103 16.3735C129.216 16.6729 132.397 17.3914 135.188 19.4271L136.876 20.6845L130.58 23.9776C113.962 32.5994 96.9557 46.0711 87.933 57.8064C83.584 63.4945 82.2857 66.1887 82.2857 69.9608C82.2857 73.9724 83.584 76.3673 86.2453 77.2056C91.0488 78.7024 96.5662 77.5649 106.303 73.0743C121.038 66.1888 135.513 53.7948 141.485 42.8978C144.99 36.4314 145.769 28.8274 143.367 24.6362C142.783 23.6782 143.627 23.1393 150.962 19.9061C175.498 9.18866 201.982 3.6204 220.546 5.41662C232.944 6.55423 242.292 9.78743 244.174 13.4996C245.992 17.0322 245.667 17.6309 239.695 20.6845C236.709 22.2412 232.425 24.9355 230.153 26.612C225.545 30.1445 219.248 38.0479 219.248 40.3232C219.248 42.1792 221.65 44.0354 225.155 44.9934C228.401 45.9513 231.906 44.7539 237.618 40.7423C242.292 37.4492 245.862 33.0185 248.069 27.4502C249.821 23.0794 250.47 22.6603 262.998 17.6908C273.059 13.6792 284.419 10.1467 295.649 7.51221C316.68 2.66241 329.792 1.6445 339.593 4.15921C342.385 4.87769 344.851 5.35673 344.981 5.17711C345.5 4.75799 335.244 1.34517 331.285 0.686554C327.715 0.0878138 314.667 -0.0319489 308.501 0.447044ZM140.771 26.7916C142.134 29.965 141.095 35.4135 138.109 41.1015C135.837 45.4724 134.344 47.2087 128.827 52.4178C117.857 62.5963 106.108 69.5417 95.5276 72.2361C90.14 73.5533 88.1277 73.0743 88.1277 70.4997C88.1277 64.7518 104.42 47.5081 120.129 36.611C126.295 32.3599 138.499 25.1751 139.537 25.1751C139.862 25.1751 140.381 25.8935 140.771 26.7916ZM241.058 29.2465C239.76 31.5815 234.243 36.1919 230.932 37.7486L228.141 39.0658L229.504 37.3294C231.841 34.3357 240.344 27.57 241.837 27.57C241.902 27.57 241.578 28.3483 241.058 29.2465ZM43.1444 48.7055C38.6655 57.6866 31.2656 66.069 20.2956 74.7507C10.1046 82.7739 -4.50039 91.6353 -7.61612 91.6353C-11.0564 91.6353 -8.71961 86.7855 -1.38465 78.463C4.7819 71.5176 9.90986 66.9073 18.8676 60.2612C26.3324 54.7528 44.8969 43.0774 45.1566 43.736C45.2864 44.0354 44.3777 46.2507 43.1444 48.7055Z" fill="#102A56"/>
</svg>
