<svg width="133" height="133" viewBox="0 0 133 133" fill="none" xmlns="http://www.w3.org/2000/svg">
<g opacity="0.04">
<path d="M66.08 132.16C29.6427 132.16 0 102.517 0 66.08C0 29.6427 29.6427 0 66.08 0C102.517 0 132.16 29.6427 132.16 66.08C132.153 102.517 102.51 132.16 66.08 132.16ZM66.08 2.22077C30.868 2.22077 2.22077 30.868 2.22077 66.08C2.22077 101.292 30.868 129.939 66.08 129.939C101.292 129.939 129.939 101.292 129.939 66.08C129.939 30.868 101.292 2.22077 66.08 2.22077Z" fill="#102A56"/>
<path d="M66.08 124.941C33.6248 124.941 7.21924 98.5355 7.21924 66.0803C7.21924 33.625 33.6248 7.21948 66.08 7.21948C98.5352 7.21948 124.941 33.625 124.941 66.0803C124.934 98.5355 98.5283 124.941 66.08 124.941ZM66.08 9.44025C34.85 9.44025 9.44001 34.8503 9.44001 66.0803C9.44001 97.3102 34.85 122.72 66.08 122.72C97.31 122.72 122.72 97.3102 122.72 66.0803C122.72 34.8503 97.31 9.44025 66.08 9.44025Z" fill="#102A56"/>
<path d="M66.0805 117.722C37.6073 117.722 14.439 94.5533 14.439 66.0801C14.439 37.607 37.6073 14.4386 66.0805 14.4386C94.5536 14.4386 117.722 37.607 117.722 66.0801C117.715 94.5533 94.5536 117.722 66.0805 117.722ZM66.0805 16.6594C38.8256 16.6594 16.6597 38.8322 16.6597 66.0801C16.6597 93.335 38.8326 115.501 66.0805 115.501C93.3284 115.501 115.501 93.328 115.501 66.0801C115.501 38.8322 93.3284 16.6594 66.0805 16.6594Z" fill="#102A56"/>
<path d="M66.08 110.503C41.5889 110.503 21.6577 90.5783 21.6577 66.0803C21.6577 41.5892 41.582 21.658 66.08 21.658C90.5711 21.658 110.502 41.5822 110.502 66.0803C110.495 90.5783 90.5711 110.503 66.08 110.503ZM66.08 23.8787C42.8072 23.8787 23.8785 42.8144 23.8785 66.0803C23.8785 89.3531 42.8142 108.282 66.08 108.282C89.3459 108.282 108.282 89.3461 108.282 66.0803C108.282 42.8144 89.3459 23.8787 66.08 23.8787Z" fill="#102A56"/>
<path d="M66.08 103.283C45.564 103.283 28.877 86.5961 28.877 66.0801C28.877 45.5642 45.564 28.8771 66.08 28.8771C86.596 28.8771 103.283 45.5642 103.283 66.0801C103.276 86.5961 86.5891 103.283 66.08 103.283ZM66.08 31.0978C46.7893 31.0978 31.0977 46.7894 31.0977 66.0801C31.0977 85.3709 46.7893 101.069 66.08 101.069C85.3708 101.069 101.062 85.3778 101.062 66.0801C101.062 46.7894 85.3708 31.0978 66.08 31.0978Z" fill="#102A56"/>
<path d="M66.08 96.0641C49.5461 96.0641 36.0962 82.6142 36.0962 66.0803C36.0962 49.5463 49.5461 36.0964 66.08 36.0964C82.6139 36.0964 96.0638 49.5463 96.0638 66.0803C96.0638 82.6142 82.607 96.0641 66.08 96.0641ZM66.08 38.3172C50.7713 38.3172 38.31 50.7716 38.31 66.0872C38.31 81.3959 50.7644 93.8573 66.08 93.8573C81.3956 93.8573 93.85 81.4029 93.85 66.0872C93.8431 50.7716 81.3887 38.3172 66.08 38.3172Z" fill="#102A56"/>
</g>
</svg>
