<svg width="655" height="151" viewBox="0 0 655 151" fill="none" xmlns="http://www.w3.org/2000/svg">
<path opacity="0.04" fill-rule="evenodd" clip-rule="evenodd" d="M641.957 88.7035C640.235 88.2226 628.886 85.677 616.846 82.8343C604.751 80.0977 584.737 75.2537 572.342 72.0004C421.001 33.394 177.093 -0.996234 67.8892 0.859955C44.5015 1.29108 18.2315 4.36369 7.40754 7.99138C-1.21782 10.8822 -2.68555 13.2259 5.67089 10.8661C17.4714 7.52845 45.9412 7.59862 99.1686 11.1877C116.398 12.3795 137.273 13.5844 145.538 13.9008C162.583 14.6253 240.667 21.2589 269.4 24.4157C305.613 28.328 371.412 37.3154 407.342 43.1746C454.543 50.8998 501.137 59.2694 501.391 60.1543C501.514 60.4657 485.568 58.4028 466.069 55.5904C429.871 50.2622 348.287 40.8331 315.073 38.2085C274.723 34.977 226.664 34.7706 224.197 37.9784C222.606 40.0106 230.881 48.3481 237.34 51.1216C247.144 55.3313 280.737 63.0318 315.59 69.0754C514.575 103.442 569.157 114.337 680.308 141.634C700.784 146.677 717.177 150.353 716.654 150C715.6 149.03 641.701 128.031 619.957 122.444C553.232 105.301 467.709 87.8446 354.731 68.0383C272.085 53.498 233.056 44.8856 234.885 41.2745C237.305 36.4952 300.665 40.039 377.575 49.2711C462.657 59.5559 540.421 72.6462 623.399 90.6909C651.878 96.8424 656.453 97.5137 656.152 95.0572C656.06 93.8537 647.809 90.1816 641.957 88.7035ZM506.496 61.4414C505.989 61.6114 504.897 61.2719 504.251 60.6066C503.489 59.8917 503.997 59.7217 505.266 60.2665C506.588 60.7051 507.119 61.3208 506.496 61.4414Z" fill="#102A56"/>
</svg>
